<?xml version="1.0" standalone="no"?>
<!DOCTYPE svg PUBLIC "-//W3C//DTD SVG 20010904//EN"
 "http://www.w3.org/TR/2001/REC-SVG-20010904/DTD/svg10.dtd">
<svg version="1.0" xmlns="http://www.w3.org/2000/svg"
 width="160.000000pt" height="160.000000pt" viewBox="0 0 160.000000 160.000000"
 preserveAspectRatio="xMidYMid meet">
<metadata>
Created by potrace 1.11, written by Peter Selinger 2001-2013
</metadata>
<g transform="translate(0.000000,160.000000) scale(0.100000,-0.100000)"
fill="#000000" stroke="none">
<path d="M718 1524 c-2 -1 -23 -5 -48 -9 -24 -4 -48 -9 -52 -11 -4 -3 -16 -7
-25 -9 -10 -2 -31 -9 -48 -16 -16 -6 -34 -13 -40 -14 -39 -9 -153 -91 -220
-159 -107 -108 -181 -250 -202 -385 -9 -59 -9 -182 0 -242 14 -94 80 -252 124
-297 7 -7 13 -16 13 -20 0 -12 94 -105 146 -145 79 -61 191 -110 304 -133 45
-9 202 -10 260 -1 107 15 252 85 349 169 160 138 252 350 246 566 -2 53 -5
106 -8 117 -54 217 -153 364 -317 470 -95 62 -158 87 -275 111 -31 6 -202 13
-207 8z"/>
</g>
</svg>
